<svg xmlns="http://www.w3.org/2000/svg" width="400" height="300" viewBox="0 0 400 300">
  <defs>
    <linearGradient id="bg" x1="0%" y1="0%" x2="100%" y2="100%">
      <stop offset="0%" stop-color="#56ab2f"/>
      <stop offset="100%" stop-color="#a8e063"/>
    </linearGradient>
  </defs>
  <rect width="400" height="300" fill="url(#bg)"/>
  <!-- Large board -->
  <rect x="95" y="85" width="155" height="125" rx="10" fill="#8B5E3C"/>
  <rect x="103" y="93" width="139" height="109" rx="7" fill="#C4874F"/>
  <!-- Wood grain -->
  <line x1="122" y1="93" x2="122" y2="202" stroke="#8B5E3C" stroke-width="2" opacity="0.4"/>
  <line x1="144" y1="93" x2="144" y2="202" stroke="#8B5E3C" stroke-width="2" opacity="0.4"/>
  <line x1="166" y1="93" x2="166" y2="202" stroke="#8B5E3C" stroke-width="2" opacity="0.4"/>
  <line x1="188" y1="93" x2="188" y2="202" stroke="#8B5E3C" stroke-width="2" opacity="0.4"/>
  <line x1="210" y1="93" x2="210" y2="202" stroke="#8B5E3C" stroke-width="2" opacity="0.4"/>
  <line x1="232" y1="93" x2="232" y2="202" stroke="#8B5E3C" stroke-width="2" opacity="0.4"/>
  <!-- Hole -->
  <circle cx="240" cy="148" r="9" fill="#8B5E3C"/>
  <!-- Medium board -->
  <rect x="264" y="100" width="34" height="96" rx="8" fill="#7a4f30"/>
  <line x1="274" y1="100" x2="274" y2="196" stroke="#5a3820" stroke-width="2" opacity="0.4"/>
  <line x1="286" y1="100" x2="286" y2="196" stroke="#5a3820" stroke-width="2" opacity="0.4"/>
  <!-- Knife -->
  <rect x="306" y="110" width="6" height="78" rx="3" fill="#ddd"/>
  <polygon points="312,110 306,110 306,125" fill="#bbb"/>
  <rect x="303" y="185" width="12" height="14" rx="3" fill="#555"/>
</svg>
