<svg xmlns="http://www.w3.org/2000/svg" width="400" height="300" viewBox="0 0 400 300">
  <defs>
    <linearGradient id="bg" x1="0%" y1="0%" x2="100%" y2="100%">
      <stop offset="0%" stop-color="#1a1a2e"/>
      <stop offset="100%" stop-color="#16213e"/>
    </linearGradient>
  </defs>
  <rect width="400" height="300" fill="url(#bg)"/>
  <!-- Watch band top -->
  <rect x="185" y="55" width="30" height="45" rx="6" fill="#444"/>
  <!-- Watch body -->
  <rect x="148" y="95" width="104" height="110" rx="18" fill="#2d2d2d"/>
  <rect x="154" y="101" width="92" height="98" rx="14" fill="#1a1a1a"/>
  <!-- Screen -->
  <rect x="162" y="109" width="76" height="82" rx="10" fill="#0a1628"/>
  <!-- Time -->
  <text x="200" y="147" text-anchor="middle" font-family="monospace" font-size="20" fill="#00d4ff" font-weight="700">10:09</text>
  <!-- Heartbeat line -->
  <polyline points="168,162 176,162 180,155 184,169 188,155 192,162 202,162 206,158 210,166 214,162 224,162 228,162"
            stroke="#ff4757" stroke-width="2" fill="none"/>
  <!-- Watch band bottom -->
  <rect x="185" y="200" width="30" height="45" rx="6" fill="#444"/>
  <!-- Crown -->
  <rect x="252" y="135" width="9" height="22" rx="4" fill="#666"/>
</svg>
